HIERARCHY
ROOT pelvis
{
  OFFSET 0 100 0
  CHANNELS 6 Xposition Yposition Zposition Zrotation Xrotation Yrotation
  JOINT pelvis_right_femur
  {
    OFFSET -10.78128 -3.44521 -0.5502486
    CHANNELS 3 Zrotation Xrotation Yrotation
    JOINT right_femur_tibia
    {
      OFFSET -0.8047443 -44.0398 -0.1307829
      CHANNELS 3 Zrotation Xrotation Yrotation
      JOINT right_tibia_foot
      {
        OFFSET 3.006224 -47.83518 -5
        CHANNELS 3 Zrotation Xrotation Yrotation
        End Site
        {
          OFFSET 0 -5 15
        }
      }
    }
  }
  JOINT pelvis_left_femur
  {
    OFFSET 10.78128 -3.44521 -0.5502486
    CHANNELS 3 Zrotation Xrotation Yrotation
    JOINT left_femur_tibia
    {
      OFFSET 0.8047443 -44.0398 -0.1307829
      CHANNELS 3 Zrotation Xrotation Yrotation
      JOINT left_tibia_foot
      {
        OFFSET -4.370144 -48.10324 -4.275266
        CHANNELS 3 Zrotation Xrotation Yrotation
        End Site
        {
          OFFSET 0 -5 15
        }
      }
    }
  }
  JOINT pelvis_spine1
  {
    OFFSET 0 6.468898 -3.129235
    CHANNELS 3 Zrotation Xrotation Yrotation
    JOINT spine1
    {
      OFFSET 0 23.15396 4.99043
      CHANNELS 3 Zrotation Xrotation Yrotation
      JOINT spine2
      {
        OFFSET 0 20.79997 -5.064912
        CHANNELS 3 Zrotation Xrotation Yrotation
        JOINT neck
        {
          OFFSET 0 14.38658 9.616178
          CHANNELS 3 Zrotation Xrotation Yrotation
          End Site
          {
            OFFSET 0 20 0
          }
        }
      }
      JOINT right_manubrium
      {
        OFFSET -5.722621 16.35077 3.967754
        CHANNELS 3 Zrotation Xrotation Yrotation
        JOINT right_clavicle
        {
          OFFSET -13.16364 1.694482 -4.693211
          CHANNELS 3 Zrotation Xrotation Yrotation
          JOINT right_humerus
          {
            OFFSET -28.5034 -0.3100689 -2.792744
            CHANNELS 3 Zrotation Xrotation Yrotation
            JOINT right_radius
            {
              OFFSET -25.15693 0.02248979 -1.271978
              CHANNELS 3 Zrotation Xrotation Yrotation
              End Site
              {
                OFFSET -15 0 0
              }
            }
          }
        }
      }
      JOINT left_manubrium
      {
        OFFSET 5.722621 16.35077 3.967754
        CHANNELS 3 Zrotation Xrotation Yrotation
        JOINT left_clavicle
        {
          OFFSET 13.16364 1.694482 -4.693211
          CHANNELS 3 Zrotation Xrotation Yrotation
          JOINT left_humerus
          {
            OFFSET 29.39168 -1.063119 -2.237045
            CHANNELS 3 Zrotation Xrotation Yrotation
            JOINT left_radius
            {
              OFFSET 24.59957 -0.9528479 0.9047498
              CHANNELS 3 Zrotation Xrotation Yrotation
              End Site
              {
                OFFSET 15 -0 -0
              }
            }
          }
        }
      }
    }
  }
}
MOTION
Frames: 17
Frame Time: 0.0416666666667
366.104 103.6456 3019.167 1.108774 -6.489938 9.873477 5.359521 9.347871 3.239533 -0 10.79912 -0 -5.520955 -12.01718 -2.46808 0.4563867 -17.16709 -4.835328 -0 38.06701 -0 -3.823834 -4.85218 17.88429 -0.3715522 -1.0556 6.674338 -0.4859366 13.11981 -5.005546 1.876554 21.63638 4.023073 1.398337 -17.92515 5.924214 -1.08673 -22.79187 11.7231 88.15438 19.33473 -12.04598 -0 0 19.08115 -25.47741 12.44928 14.44 3.919812 -20.28009 -5.539213 -89.98411 17.88024 22.74709 0 0 -14.68199 2.869441 9.567964 9.839547
367.6241 102.9667 3024.963 1.086199 -6.242164 9.146832 4.802243 12.83219 2.593302 -0 10.10205 -0 -5.141383 -12.90735 -1.538111 1.141235 -20.78713 -4.176761 -0 29.12524 -0 -3.111381 -5.451603 18.45502 -0.299841 -1.115265 7.280688 -0.8167199 13.27295 -4.3848 1.906488 21.64523 3.789734 1.286772 -17.87542 5.787316 -1.274663 -23.95958 11.7851 87.25583 18.95542 -9.912466 -0 0 21.31016 -26.10198 12.37899 15.22578 3.646462 -19.48789 -5.322546 -91.56054 17.55577 25.55721 0 0 -11.95335 2.468737 9.730426 10.28872
369.2773 101.9258 3030.827 1.144223 -6.138363 8.544802 4.205815 15.54809 2.173156 -0 10.94096 -0 -4.662409 -13.18853 -0.8776152 1.516465 -23.34717 -3.776248 -0 21.84989 -0 -2.589349 -6.053987 18.92298 -0.2438604 -1.16087 7.822561 -1.110619 13.39483 -3.833933 1.931546 21.64728 3.586991 1.191561 -17.82244 5.664196 -1.418096 -24.98036 11.83806 86.45683 18.62542 -8.020288 -0 0 23.29957 -26.65129 12.31387 15.92471 3.399944 -18.76911 -5.119145 -92.96004 17.23416 28.02129 0 0 -9.540733 2.069121 9.835806 10.74322
371.0289 100.7723 3036.776 1.304097 -6.285067 8.096386 3.556699 17.32431 2.057822 -0 13.79594 -0 -4.075992 -12.62641 -0.6278199 1.461393 -24.54531 -3.69683 -0 17.45012 -0 -2.423848 -6.528619 19.20421 -0.2108159 -1.185393 8.224367 -1.329458 13.46741 -3.421504 1.951423 21.65071 3.438937 1.123198 -17.77071 5.573456 -1.507765 -25.71821 11.87288 85.85499 18.38717 -6.608214 -0 0 24.78082 -27.05027 12.25786 16.44067 3.214717 -18.21552 -4.957303 -94.00006 16.99182 29.82232 0 0 -7.744206 1.732838 9.886247 11.12897
372.8504 99.77078 3042.85 1.572105 -6.705311 7.837993 2.824346 18.13922 2.208096 -0 18.74161 -0 -3.359291 -11.11548 -0.8212734 0.9636828 -24.3255 -3.906944 -0 15.92584 -0 -2.661121 -6.893071 19.24824 -0.200652 -1.18871 8.448125 -1.455385 13.48704 -3.178158 1.96728 21.66411 3.354598 1.084617 -17.72736 5.525537 -1.551612 -26.11678 11.8848 85.49984 18.25504 -5.785916 -0 0 25.62256 -27.26268 12.21111 16.72589 3.109101 -17.87585 -4.85434 -94.60037 16.87719 30.82753 0 0 -6.693046 1.511866 9.906321 11.38171
374.7257 99.13544 3049.083 1.937037 -7.323293 7.811532 1.997012 17.9867 2.522929 -0 25.4533 -0 -2.505458 -8.746089 -1.401671 0.07987133 -22.77176 -4.361209 -0 16.39568 -0 -3.204935 -7.283435 19.06918 -0.2080185 -1.175725 8.500685 -1.49354 13.46229 -3.093322 1.980609 21.69195 3.328089 1.07203 -17.69807 5.519973 -1.565803 -26.20308 11.87461 85.38524 18.21536 -5.520502 -0 0 25.85305 -27.2976 12.17097 16.78987 3.081132 -17.74579 -4.811639 -94.78981 16.89112 31.09516 0 0 -6.335431 1.426151 9.924061 11.47486
376.6461 99.00408 3055.474 2.376544 -8.005092 8.057317 1.097935 16.72429 2.895072 -0 33.4077 -0 -1.538856 -5.71972 -2.290876 -1.128509 -19.90888 -5.055869 -0 17.80075 -0 -3.886786 -7.885274 18.71226 -0.2258979 -1.153384 8.402555 -1.454949 13.4066 -3.147564 1.991615 21.7337 3.350573 1.080655 -17.68903 5.552211 -1.565012 -26.02723 11.84615 85.49419 18.24592 -5.746378 -0 0 25.54495 -27.17854 12.13633 16.65944 3.122518 -17.80936 -4.82629 -94.62276 17.00574 30.72877 0 0 -6.580937 1.484222 9.960842 11.39663
378.5999 99.42596 3061.962 2.846426 -8.574009 8.595193 0.2080476 14.10213 3.233376 -0 41.80749 -0 -0.548396 -2.382851 -3.389033 -2.580564 -15.73248 -6.022942 -0 19.2419 -0 -4.494852 -8.865644 18.25038 -0.2464952 -1.130428 8.164078 -1.343515 13.33623 -3.337181 1.998036 21.78387 3.418514 1.108355 -17.71147 5.618991 -1.559805 -25.62143 11.80491 85.83483 18.32847 -6.44855 -0 0 24.72722 -26.92101 12.11171 16.34861 3.229843 -18.074 -4.902075 -94.11862 17.181 29.77594 0 0 -7.406199 1.708841 10.03221 11.12018
380.5603 100.3333 3068.404 3.251138 -8.807578 9.387351 -0.5017991 9.9836 3.47603 -0 49.21648 -0 0.2474688 0.6162931 -4.501869 -4.099126 -10.48277 -7.285936 -0 20.04981 -0 -4.764273 -10.28227 17.81778 -0.2599464 -1.119019 7.789273 -1.157455 13.27365 -3.672178 1.994761 21.83046 3.532457 1.155072 -17.78278 5.717109 -1.558473 -25.00862 11.75942 86.43715 18.44476 -7.653439 -0 0 23.39705 -26.5378 12.10904 15.8637 3.402879 -18.56941 -5.049618 -93.27063 17.35928 28.24642 0 0 -8.84463 2.138316 10.14816 10.60237
382.4793 101.5162 3074.603 3.444984 -8.511081 10.31541 -0.8025134 4.634023 3.593221 -0 53.57503 -0 0.5176863 2.431329 -5.324415 -5.379334 -4.867713 -8.770591 -0 19.8872 -0 -4.464397 -11.995 17.57141 -0.2543409 -1.134417 7.300013 -0.9018673 13.24908 -4.152213 1.97507 21.8544 3.688861 1.219413 -17.92004 5.837631 -1.568269 -24.24161 11.72291 87.31117 18.56619 -9.343597 -0 0 21.60867 -26.06251 12.14554 15.23437 3.632827 -19.31124 -5.275406 -92.10841 17.45815 26.21721 0 0 -10.88305 2.796505 10.30623 9.819342
384.3058 102.6642 3080.43 3.317012 -7.674915 11.22906 -0.5624272 -1.248804 3.539006 -0 53.22504 -0 0.05715007 2.624417 -5.629529 -6.119055 0.1888864 -10.2041 -0 18.79004 -0 -3.616306 -13.71996 17.51532 -0.2208528 -1.188335 6.753153 -0.5995143 13.29015 -4.742503 1.934192 21.83504 3.873443 1.295989 -18.12598 5.962904 -1.591689 -23.42215 11.71023 88.39674 18.65769 -11.37673 -0 0 19.54512 -25.56142 12.23644 14.53488 3.893292 -20.25677 -5.567773 -90.74924 17.3977 23.91039 0 0 -13.36312 3.648283 10.48131 8.817991
386.0104 103.4826 3085.913 2.882651 -6.506971 12.02975 0.1211035 -6.997234 3.233788 -0 48.15918 -0 -0.9983188 1.584751 -5.476289 -6.239489 4.209102 -11.22521 -0 17.04224 -0 -2.537407 -15.25121 17.43481 -0.1598851 -1.281203 6.211222 -0.2788826 13.40477 -5.391307 1.872081 21.76111 4.068906 1.378527 -18.38523 6.075708 -1.622237 -22.64481 11.72931 89.5888 18.70109 -13.55662 -0 0 17.42487 -25.09796 12.38693 13.84557 4.153606 -21.32307 -5.901537 -89.33743 17.15076 21.57702 0 0 -16.06203 4.60938 10.63433 7.701554
387.5856 103.7872 3091.185 2.2524 -5.259669 12.68639 1.019372 -12.37074 2.660601 -0 39.85601 -0 -2.334251 0.07409607 -5.105159 -5.90382 7.373508 -11.67124 -0 15.07705 -0 -1.567654 -16.55822 17.11566 -0.07813928 -1.405714 5.699616 0.04716627 13.58174 -6.070075 1.791748 21.63459 4.267642 1.464618 -18.68111 6.170584 -1.650509 -21.93694 11.77834 90.82199 18.6999 -15.77989 -0 0 15.3468 -24.69036 12.59206 13.19748 4.399751 -22.45461 -6.258394 -87.94456 16.73937 19.32422 0 0 -18.86067 5.617077 10.74072 6.544409
389.0338 103.5211 3096.402 1.55293 -4.119748 13.20381 1.93285 -17.35159 1.894383 -0 30.16083 -0 -3.684588 -1.301316 -4.731445 -5.339764 10.07222 -11.5932 -0 13.4326 -0 -0.9126683 -17.65845 16.47898 0.01678772 -1.553118 5.222603 0.3744779 13.80339 -6.763778 1.697436 21.46489 4.467066 1.553524 -19.00156 6.24908 -1.670155 -21.29439 11.85117 92.06238 18.6635 -17.99911 -0 0 13.34099 -24.33168 12.84025 12.59348 4.627863 -23.61731 -6.625784 -86.60189 16.20032 17.18142 0 0 -21.69736 6.635312 10.79462 5.387104
390.3688 102.7408 3101.714 0.9085957 -3.240853 13.60453 2.721832 -21.77547 1.05418 -0 20.82206 -0 -4.846467 -2.142036 -4.493688 -4.741798 12.51019 -11.09931 -0 12.71919 -0 -0.7009212 -18.49657 15.54238 0.1173533 -1.713366 4.804191 0.6866447 14.05199 -7.433642 1.595236 21.2642 4.657055 1.640904 -19.32903 6.30874 -1.677421 -20.74654 11.94175 93.23537 18.60432 -20.09047 -0 0 11.51432 -24.03283 13.11487 12.06199 4.826248 -24.74222 -6.981018 -85.38486 15.58258 15.26504 0 0 -24.41048 7.603437 10.79647 4.297852
391.6238 101.6105 3107.251 0.4440208 -2.768238 13.92171 3.298314 -25.21673 0.2976196 -0 13.53414 -0 -5.644768 -2.220729 -4.472623 -4.267899 14.61447 -10.31692 -0 13.56052 -0 -1.00189 -18.92627 14.41271 0.2168792 -1.875492 4.491366 0.9530749 14.31234 -8.014961 1.492806 21.04629 4.818941 1.718215 -19.63951 6.34169 -1.671681 -20.36181 12.04491 94.21968 18.54263 -21.8471 -0 0 10.06045 -23.82854 13.39639 11.66221 4.974763 -25.72318 -7.291492 -84.41083 14.9521 13.78785 0 0 -26.73085 8.433534 10.75302 3.375881
392.8489 100.3775 3113.101 0.2444974 -2.784978 14.18777 3.663234 -27.1844 -0.2013943 -0 9.459058 -0 -5.9843 -1.568723 -4.688028 -4.002903 16.11058 -9.39021 -0 16.40421 -0 -1.777827 -18.77474 13.27599 0.3106878 -2.029897 4.324547 1.145356 14.57259 -8.449162 1.397267 20.82527 4.935552 1.777058 -19.91184 6.341249 -1.655606 -20.20165 12.15575 94.90879 18.50274 -23.08815 -0 0 9.148189 -23.75081 13.66641 11.44636 5.057724 -26.46732 -7.529565 -83.77123 14.37608 12.93221 0 0 -28.41755 9.053874 10.67959 2.70104
